<svg width="294" height="228" viewBox="0 0 294 228" fill="none" xmlns="http://www.w3.org/2000/svg">
<path d="M292.589 111.029L247.035 109.427C196.865 108.025 183.821 107.023 175.995 102.617C170.175 99.4129 166.763 96.609 166.763 87.7969C166.763 80.9876 172.382 63.9642 172.382 59.9587C172.382 58.5568 169.172 58.5568 167.967 58.9574C166.563 59.3579 165.961 61.1604 164.757 63.3634C161.144 70.5733 155.124 82.3895 148.301 90.6008C141.077 99.2126 131.444 103.619 121.009 106.022C109.771 107.824 85.6895 109.827 64.217 111.229C62.0095 111.429 61.4075 112.431 60.6048 114.634C60.0027 116.837 61.0061 116.837 61.8088 116.837C84.8868 118.439 105.557 118.038 118.601 121.844C127.631 124.247 130.842 128.252 130.641 136.864C130.441 144.274 126.828 156.892 124.822 165.303C124.621 166.705 125.624 167.306 126.427 167.306H129.237C130.641 167.306 131.243 166.104 131.645 165.303C141.277 145.276 147.9 133.46 163.954 127.852C175.593 123.646 186.229 122.445 223.355 120.642L290.983 117.438C292.789 117.237 293.191 116.036 293.793 113.432C294.395 111.63 293.592 111.229 292.589 111.029Z" fill="black"/>
<path d="M241.616 24.9106C230.378 14.6966 213.722 3.88177 189.239 1.07792C177.6 -0.324001 166.362 -0.324001 154.723 0.877648C146.094 1.67875 137.063 3.28095 128.033 5.88452C117.397 8.88864 106.159 13.2947 95.5227 18.5018C82.6793 24.9106 69.6353 32.9216 56.7919 43.1357C43.3465 54.1508 28.8976 68.7708 17.8603 85.7942C8.42848 100.615 0 118.84 0 143.674C0 174.917 11.6393 196.546 30.9044 209.965C45.9553 220.379 64.0163 227.389 90.1044 227.989C106.159 228.19 128.835 225.586 149.304 217.976C165.961 212.168 184.022 203.356 200.277 191.339C214.725 180.724 227.77 167.907 237.201 155.089C241.014 149.882 243.824 145.476 245.831 141.471L246.031 141.07C247.436 138.667 246.433 134.261 239.81 135.062C238.807 135.262 238.004 136.263 236.8 137.866C234.191 141.471 231.783 145.076 227.77 149.882C222.151 156.291 216.331 162.299 204.892 171.312C192.049 180.925 179.005 188.936 162.75 195.545C152.315 199.55 137.464 204.757 116.594 206.76C104.955 207.361 91.5092 206.76 80.6726 203.155C70.2373 199.951 61.8088 195.144 54.5844 188.735C43.9485 179.122 36.3227 164.703 35.7207 146.678C35.1187 127.251 41.5404 109.827 51.7749 93.0041C59.8021 80.1865 72.6454 65.967 89.101 52.9491C101.944 42.9354 119.604 32.9216 139.873 26.1123C153.318 21.9065 166.563 18.5018 184.423 18.7021C201.481 19.1027 215.127 21.7062 226.967 28.5156C236.599 33.7227 245.229 42.5348 249.643 50.9464C253.256 57.956 256.266 66.5678 256.667 78.5843C257.069 85.3937 256.266 90.8011 256.466 93.2044C256.667 94.8066 260.079 94.406 261.283 94.406C262.286 94.406 263.29 93.4046 263.29 92.203C263.892 87.7969 264.092 83.5912 264.092 78.5843C264.092 59.5582 256.266 38.5293 241.616 24.9106Z" fill="black"/>
</svg>
