<svg width="648" height="191" viewBox="0 0 648 191" fill="none" xmlns="http://www.w3.org/2000/svg">
<path d="M244.348 92.7228L206.304 91.3848C164.407 90.214 153.513 89.3777 146.977 85.6981C142.117 83.022 139.268 80.6805 139.268 73.3213C139.268 67.6346 143.961 53.418 143.961 50.0729C143.961 48.9022 141.279 48.9022 140.274 49.2367C139.1 49.5712 138.598 51.0765 137.592 52.9163C134.576 58.9374 129.548 68.8054 123.85 75.6629C117.816 82.8548 109.772 86.5344 101.057 88.5414C91.6722 90.0467 71.5613 91.7193 53.6291 92.89C51.7856 93.0573 51.2828 93.8936 50.6125 95.7334C50.1097 97.5732 50.9476 97.5732 51.618 97.5732C70.891 98.9112 88.1528 98.5767 99.0462 101.755C106.588 103.762 109.269 107.107 109.102 114.299C108.934 120.487 105.917 131.024 104.242 138.049C104.074 139.219 104.912 139.721 105.582 139.721H107.929C109.102 139.721 109.604 138.718 109.94 138.049C117.984 121.323 123.515 111.455 136.922 106.772C146.642 103.26 155.524 102.256 186.529 100.751L243.007 98.0749C244.515 97.9077 244.85 96.9041 245.353 94.7298C245.856 93.2246 245.186 92.89 244.348 92.7228Z" fill="black"/>
<path d="M201.779 20.8035C192.394 12.2735 178.484 3.24176 158.038 0.900199C148.318 -0.27058 138.933 -0.270581 129.213 0.732944C122.006 1.40196 114.465 2.74 106.923 4.9143C98.0407 7.42312 88.6556 11.1027 79.7733 15.4513C69.0475 20.8035 58.154 27.4936 47.4282 36.0236C36.1996 45.2226 24.1331 57.4321 14.9156 71.6488C7.03882 84.0256 0 99.2457 0 119.985C0 146.077 9.72027 164.14 25.809 175.346C38.3783 184.044 53.4615 189.898 75.2483 190.399C88.6556 190.567 107.593 188.392 124.688 182.037C138.598 177.186 153.681 169.827 167.256 159.792C179.322 150.927 190.216 140.223 198.092 129.519C201.277 125.17 203.623 121.491 205.299 118.145L205.466 117.811C206.64 115.804 205.802 112.124 200.271 112.793C199.433 112.961 198.763 113.797 197.757 115.135C195.579 118.145 193.568 121.156 190.216 125.17C185.523 130.522 180.663 135.54 171.11 143.066C160.385 151.095 149.491 157.785 135.916 163.304C127.202 166.649 114.8 170.998 97.3703 172.67C87.65 173.172 76.4215 172.67 67.3715 169.66C58.6568 166.984 51.618 162.97 45.5847 157.617C36.7024 149.589 30.334 137.547 29.8312 122.494C29.3284 106.27 34.6913 91.7193 43.2385 77.6699C49.9421 66.9656 60.6679 55.0906 74.4104 44.2191C85.1362 35.8563 99.8842 27.4936 116.811 21.807C128.039 18.2946 139.1 15.4513 154.016 15.6186C168.261 15.9531 179.657 18.1274 189.545 23.814C197.59 28.1626 204.796 35.5218 208.483 42.5465C211.5 48.4004 214.014 55.5923 214.349 65.6276C214.684 71.3143 214.014 75.8301 214.181 77.8372C214.349 79.1752 217.198 78.8407 218.203 78.8407C219.041 78.8407 219.879 78.0044 219.879 77.0009C220.382 73.3213 220.55 69.809 220.55 65.6276C220.55 49.7384 214.014 32.1767 201.779 20.8035Z" fill="black"/>
<path d="M330.493 132.022C325.105 132.022 320.093 131.135 315.455 129.362C310.885 127.521 306.896 124.963 303.485 121.689C300.144 118.348 297.518 114.494 295.608 110.129C293.767 105.696 292.846 100.854 292.846 95.6022C292.846 90.3507 293.767 85.5425 295.608 81.1775C297.518 76.7444 300.144 72.891 303.485 69.6174C306.896 66.2755 310.885 63.7179 315.455 61.9447C320.024 60.1032 325.037 59.1825 330.493 59.1825C335.881 59.1825 340.86 60.1032 345.43 61.9447C349.999 63.7179 353.955 66.2414 357.297 69.5151C360.707 72.7887 363.332 76.6421 365.174 81.0752C367.084 85.5084 368.038 90.3507 368.038 95.6022C368.038 100.854 367.084 105.696 365.174 110.129C363.332 114.562 360.707 118.416 357.297 121.689C353.955 124.963 349.999 127.521 345.43 129.362C340.86 131.135 335.881 132.022 330.493 132.022ZM330.493 125.27C334.79 125.27 338.746 124.554 342.36 123.122C346.043 121.621 349.215 119.541 351.875 116.881C354.603 114.153 356.717 111.016 358.217 107.469C359.718 103.855 360.468 99.8989 360.468 95.6022C360.468 91.3055 359.718 87.3839 358.217 83.8374C356.717 80.2227 354.603 77.0854 351.875 74.4256C349.215 71.6975 346.043 69.6174 342.36 68.1851C338.746 66.6847 334.79 65.9345 330.493 65.9345C326.197 65.9345 322.207 66.6847 318.524 68.1851C314.841 69.6174 311.636 71.6975 308.907 74.4256C306.248 77.0854 304.133 80.2227 302.565 83.8374C301.064 87.3839 300.314 91.3055 300.314 95.6022C300.314 99.8307 301.064 103.752 302.565 107.367C304.133 110.982 306.248 114.153 308.907 116.881C311.636 119.541 314.841 121.621 318.524 123.122C322.207 124.554 326.197 125.27 330.493 125.27ZM385.007 131.408V59.7963H411.81C420.881 59.7963 428.008 61.9788 433.192 66.3437C438.443 70.6404 441.069 76.6421 441.069 84.3489C441.069 89.3959 439.875 93.7608 437.488 97.4437C435.169 101.058 431.828 103.855 427.463 105.832C423.098 107.742 417.88 108.697 411.81 108.697H389.201L392.577 105.219V131.408H385.007ZM433.908 131.408L415.493 105.423H423.677L442.194 131.408H433.908ZM392.577 105.832L389.201 102.252H411.606C418.767 102.252 424.189 100.683 427.872 97.546C431.623 94.4087 433.499 90.0097 433.499 84.3489C433.499 78.62 431.623 74.1869 427.872 71.0496C424.189 67.9123 418.767 66.3437 411.606 66.3437H389.201L392.577 62.7631V105.832ZM458.937 131.408V59.7963H466.507V131.408H458.937ZM521.112 132.022C515.724 132.022 510.711 131.135 506.073 129.362C501.504 127.521 497.514 124.963 494.104 121.689C490.762 118.348 488.136 114.494 486.227 110.129C484.385 105.696 483.465 100.854 483.465 95.6022C483.465 90.3507 484.385 85.5425 486.227 81.1775C488.136 76.7444 490.762 72.891 494.104 69.6174C497.514 66.2755 501.504 63.7179 506.073 61.9447C510.643 60.1032 515.656 59.1825 521.112 59.1825C526.5 59.1825 531.479 60.1032 536.048 61.9447C540.618 63.7179 544.573 66.2414 547.915 69.5151C551.325 72.7887 553.951 76.6421 555.793 81.0752C557.702 85.5084 558.657 90.3507 558.657 95.6022C558.657 100.854 557.702 105.696 555.793 110.129C553.951 114.562 551.325 118.416 547.915 121.689C544.573 124.963 540.618 127.521 536.048 129.362C531.479 131.135 526.5 132.022 521.112 132.022ZM521.112 125.27C525.409 125.27 529.364 124.554 532.979 123.122C536.662 121.621 539.833 119.541 542.493 116.881C545.221 114.153 547.336 111.016 548.836 107.469C550.336 103.855 551.087 99.8989 551.087 95.6022C551.087 91.3055 550.336 87.3839 548.836 83.8374C547.336 80.2227 545.221 77.0854 542.493 74.4256C539.833 71.6975 536.662 69.6174 532.979 68.1851C529.364 66.6847 525.409 65.9345 521.112 65.9345C516.815 65.9345 512.825 66.6847 509.143 68.1851C505.46 69.6174 502.254 71.6975 499.526 74.4256C496.866 77.0854 494.752 80.2227 493.183 83.8374C491.683 87.3839 490.933 91.3055 490.933 95.6022C490.933 99.8307 491.683 103.752 493.183 107.367C494.752 110.982 496.866 114.153 499.526 116.881C502.254 119.541 505.46 121.621 509.143 123.122C512.825 124.554 516.815 125.27 521.112 125.27ZM575.626 131.408V59.7963H581.866L631.278 121.996H628.005V59.7963H635.473V131.408H629.232L579.922 69.2081H583.196V131.408H575.626Z" fill="black"/>
</svg>
